# xmcd
#
# Track frame offsets:
#	150
#	21019
#	42685
#	61391
#	84195
#	101094
#	123689
#	145839
#	163193
#	184765
#	204298
#	226285
#	248033
#	271141
#	287819
#	310210
#	332599
#
# Disc length: 4700 seconds
#
# Revision: 0
# Processed by: cddbd v1.5.2PL0 Copyright (c) Steve Scherf et al.
# Submitted via: dBpowerAMP V4.0
#
DISCID=f1125a11
DTITLE=Jerry Rivera - historia musical
DYEAR=1900
DGENRE=Pop
TTITLE0=mi libertad
TTITLE1=la cura
TTITLE2=amores como el nuestro
TTITLE3=esa niña
TTITLE4=casi un hechizo
TTITLE5=que hay de malo
TTITLE6=no hieras mi vida
TTITLE7=cuenta conmigo
TTITLE8=me estoy enloqueciendo
TTITLE9=ese
TTITLE10=quiero
TTITLE11=vuela libre
TTITLE12=un amor verdadero
TTITLE13=magia
TTITLE14=ya no soy el niño aquel
TTITLE15=cara de niño
TTITLE16=de que vale ser rey
EXTD=
EXTT0=
EXTT1=
EXTT2=
EXTT3=
EXTT4=
EXTT5=
EXTT6=
EXTT7=
EXTT8=
EXTT9=
EXTT10=
EXTT11=
EXTT12=
EXTT13=
EXTT14=
EXTT15=
EXTT16=
PLAYORDER=
